{"title":"The Bad Seed(1956)MPEG-4[DaScubaDude]","uid":15125359,"size":1277986257,"categoryP":"video","categoryS":"movies","magnet":"?xt=urn:btih:469cbc2b9fc02a0400b206ba472b518cb623ea07&amp;dn=The+Bad+Seed%281956%29MPEG-4%5BDaScubaDude%5D&amp;tr=udp%3A%2F%2Ftracker.leechers-paradise.org%3A6969&amp;tr=udp%3A%2F%2Fzer0day.ch%3A1337&amp;tr=udp%3A%2F%2Fopen.demonii.com%3A1337&amp;tr=udp%3A%2F%2Ftracker.coppersurfer.tk%3A6969&amp;tr=udp%3A%2F%2Fexodus.desync.com%3A6969","seeders":0,"leechers":1,"uploader":"dascuba","files":1,"time":1467108399,"description":"The Bad Seed (1956)\r\nApproved | 2h 9min | Crime, Drama, Horror | 12 September 1956 (USA)\r\nA housewife suspects that her seemingly perfect eight year-old daughter is a heartless killer.\r\nDirector: Mervyn LeRoy\r\nWriters: John Lee Mahin (screenplay), Maxwell Anderson (play) | \r\nStars: Nancy Kelly, Patty McCormack, Henry Jones |\r\n\r\nGeneral\r\nComplete name                            : TheBadSeedTHE_BAD_SEED_Title1.mp4\r\nFormat                                   : MPEG-4\r\nFormat profile                           : Base Media\r\nCodec ID                                 : isom (isom/iso2/avc1/mp41)\r\nFile size                                : 1.19 GiB\r\nDuration                                 : 2h 9mn\r\nOverall bit rate mode                    : Variable\r\nOverall bit rate                         : 1 321 Kbps\r\nMovie name                               : THE_BAD_SEED\r\nGenre                                    : Thriller\r\nWriting application                      : Lavf54.6.100\r\n\r\nVideo\r\nID                                       : 1\r\nFormat                                   : AVC\r\nFormat/Info                              : Advanced Video Codec\r\nFormat profile                           :   \r\nFormat settings, CABAC                   : No\r\nFormat settings, ReFrames                : 6 frames\r\nFormat settings, GOP                     : M=1, N=60\r\nCodec ID                                 : avc1\r\nCodec ID/Info                            : Advanced Video Coding\r\nDuration                                 : 2h 9mn\r\nBit rate                                 : 1 205 Kbps\r\nWidth                                    : 720 pixels\r\nHeight                                   : 540 pixels\r\nDisplay aspect ratio                     : 4:3\r\nFrame rate mode                          : Constant\r\nFrame rate                               : 29.970 (30000/1001) fps\r\nColor space                              : YUV\r\nChroma subsampling                       : 4:2:0\r\nBit depth                                : 8 bits\r\nScan type                                : Progressive\r\nBits/(Pixel*Frame)                       : 0.103\r\nStream size                              : 1.09 GiB (91%)\r\n\r\nAudio\r\nID                                       : 2\r\nFormat                                   : AAC\r\nFormat/Info                              : Advanced Audio Codec\r\nFormat profile                           : LC\r\nCodec ID                                 : 40\r\nDuration                                 : 2h 9mn\r\nBit rate mode                            : Variable\r\nBit rate                                 : 109 Kbps\r\nMaximum bit rate                         : 115 Kbps\r\nChannel(s)                               : 2 channels\r\nChannel(s)_Original                      : 1 channel\r\nChannel positions                        : Front: C\r\nSampling rate                            : 44.1 KHz\r\nFrame rate                               : 43.066 fps (1024 spf)\r\nCompression mode                         : Lossy\r\nStream size                              : 100 MiB (8%)\r\nDefault                                  : Yes\r\nAlternate group                          : 1","torrent":{"xt":"urn:btih:469cbc2b9fc02a0400b206ba472b518cb623ea07","amp;dn":"The+Bad+Seed%281956%29MPEG-4%5BDaScubaDude%5D","amp;tr":["udp%3A%2F%2Ftracker.leechers-paradise.org%3A6969","udp%3A%2F%2Fzer0day.ch%3A1337","udp%3A%2F%2Fopen.demonii.com%3A1337","udp%3A%2F%2Ftracker.coppersurfer.tk%3A6969","udp%3A%2F%2Fexodus.desync.com%3A6969"],"infoHash":"469cbc2b9fc02a0400b206ba472b518cb623ea07","infoHashBuffer":{"type":"Buffer","data":[70,156,188,43,159,192,42,4,0,178,6,186,71,43,81,140,182,35,234,7]},"announce":[],"urlList":[]}}